<mxfile host="app.diagrams.net" agent="Mozilla/5.0 (Windows NT 10.0; Win64; x64) AppleWebKit/537.36 (KHTML, like Gecko) Chrome/129.0.0.0 Safari/537.36" version="24.8.2">
  <diagram name="Page-1" id="RNGhUgNN9Unf278dk6CR">
    <mxGraphModel dx="1235" dy="782" grid="1" gridSize="10" guides="1" tooltips="1" connect="1" arrows="1" fold="1" page="1" pageScale="1" pageWidth="1000" pageHeight="800" math="0" shadow="0">
      <root>
        <mxCell id="0" />
        <mxCell id="1" parent="0" />
        <mxCell id="XM6qKqRxeEOma62oAl2I-5" value="" style="rounded=0;whiteSpace=wrap;html=1;labelBorderColor=none;labelBackgroundColor=default;" vertex="1" parent="1">
          <mxGeometry x="120" y="40" width="800" height="680" as="geometry" />
        </mxCell>
        <mxCell id="XM6qKqRxeEOma62oAl2I-16" style="edgeStyle=orthogonalEdgeStyle;rounded=0;orthogonalLoop=1;jettySize=auto;html=1;entryX=0;entryY=0.5;entryDx=0;entryDy=0;" edge="1" parent="1" source="XM6qKqRxeEOma62oAl2I-1" target="XM6qKqRxeEOma62oAl2I-9">
          <mxGeometry relative="1" as="geometry" />
        </mxCell>
        <mxCell id="XM6qKqRxeEOma62oAl2I-17" style="edgeStyle=orthogonalEdgeStyle;rounded=0;orthogonalLoop=1;jettySize=auto;html=1;entryX=0;entryY=0.5;entryDx=0;entryDy=0;" edge="1" parent="1" source="XM6qKqRxeEOma62oAl2I-1" target="XM6qKqRxeEOma62oAl2I-9">
          <mxGeometry relative="1" as="geometry" />
        </mxCell>
        <mxCell id="XM6qKqRxeEOma62oAl2I-18" style="edgeStyle=orthogonalEdgeStyle;rounded=0;orthogonalLoop=1;jettySize=auto;html=1;entryX=0;entryY=0.5;entryDx=0;entryDy=0;" edge="1" parent="1" source="XM6qKqRxeEOma62oAl2I-1" target="XM6qKqRxeEOma62oAl2I-10">
          <mxGeometry relative="1" as="geometry" />
        </mxCell>
        <mxCell id="XM6qKqRxeEOma62oAl2I-19" style="edgeStyle=orthogonalEdgeStyle;rounded=0;orthogonalLoop=1;jettySize=auto;html=1;entryX=0;entryY=0.5;entryDx=0;entryDy=0;" edge="1" parent="1" source="XM6qKqRxeEOma62oAl2I-1" target="XM6qKqRxeEOma62oAl2I-10">
          <mxGeometry relative="1" as="geometry" />
        </mxCell>
        <mxCell id="XM6qKqRxeEOma62oAl2I-20" style="edgeStyle=orthogonalEdgeStyle;rounded=0;orthogonalLoop=1;jettySize=auto;html=1;entryX=0;entryY=0.5;entryDx=0;entryDy=0;" edge="1" parent="1" source="XM6qKqRxeEOma62oAl2I-1" target="XM6qKqRxeEOma62oAl2I-10">
          <mxGeometry relative="1" as="geometry" />
        </mxCell>
        <mxCell id="XM6qKqRxeEOma62oAl2I-1" value="Actor" style="shape=umlActor;verticalLabelPosition=bottom;verticalAlign=top;html=1;outlineConnect=0;" vertex="1" parent="1">
          <mxGeometry x="50" y="110" width="30" height="60" as="geometry" />
        </mxCell>
        <mxCell id="XM6qKqRxeEOma62oAl2I-6" value="Add life categories" style="ellipse;whiteSpace=wrap;html=1;" vertex="1" parent="1">
          <mxGeometry x="180" y="70" width="100" height="60" as="geometry" />
        </mxCell>
        <mxCell id="XM6qKqRxeEOma62oAl2I-9" value="mark habits" style="ellipse;whiteSpace=wrap;html=1;" vertex="1" parent="1">
          <mxGeometry x="180" y="150" width="100" height="60" as="geometry" />
        </mxCell>
        <mxCell id="XM6qKqRxeEOma62oAl2I-10" value="get habits graph" style="ellipse;whiteSpace=wrap;html=1;" vertex="1" parent="1">
          <mxGeometry x="180" y="230" width="100" height="60" as="geometry" />
        </mxCell>
        <mxCell id="XM6qKqRxeEOma62oAl2I-13" value="Branch weekly goals to daily" style="ellipse;whiteSpace=wrap;html=1;" vertex="1" parent="1">
          <mxGeometry x="180" y="300" width="100" height="60" as="geometry" />
        </mxCell>
        <mxCell id="XM6qKqRxeEOma62oAl2I-14" style="edgeStyle=orthogonalEdgeStyle;rounded=0;orthogonalLoop=1;jettySize=auto;html=1;entryX=0;entryY=0.5;entryDx=0;entryDy=0;" edge="1" parent="1" source="XM6qKqRxeEOma62oAl2I-1" target="XM6qKqRxeEOma62oAl2I-13">
          <mxGeometry relative="1" as="geometry" />
        </mxCell>
        <mxCell id="XM6qKqRxeEOma62oAl2I-15" style="edgeStyle=orthogonalEdgeStyle;rounded=0;orthogonalLoop=1;jettySize=auto;html=1;entryX=0;entryY=0.5;entryDx=0;entryDy=0;" edge="1" parent="1" source="XM6qKqRxeEOma62oAl2I-1" target="XM6qKqRxeEOma62oAl2I-6">
          <mxGeometry relative="1" as="geometry" />
        </mxCell>
      </root>
    </mxGraphModel>
  </diagram>
</mxfile>
